<?xml version="1.0" standalone="no"?>
<!DOCTYPE svg PUBLIC "-//W3C//DTD SVG 20010904//EN"
 "http://www.w3.org/TR/2001/REC-SVG-20010904/DTD/svg10.dtd">
<svg version="1.0" xmlns="http://www.w3.org/2000/svg"
 width="856.000000pt" height="856.000000pt" viewBox="0 0 856.000000 856.000000"
 preserveAspectRatio="xMidYMid meet">
<metadata>
Created by potrace 1.14, written by Peter Selinger 2001-2017
</metadata>
<g transform="translate(0.000000,856.000000) scale(0.100000,-0.100000)"
fill="#000000" stroke="none">
<path d="M34 7565 l-34 -37 0 -431 c1 -475 -2 -453 66 -486 48 -24 89 -14 126
30 l27 32 1 350 c0 193 3 353 5 356 6 5 205 4 211 -1 2 -2 3 -51 3 -108 1
-245 2 -248 53 -280 31 -19 47 -20 288 -18 329 4 318 -4 318 229 0 73 1 144 1
157 1 22 3 23 110 21 l108 -1 1 -137 c0 -212 -2 -199 35 -236 l34 -34 251 -1
c262 -1 278 2 315 43 21 25 20 15 23 172 1 72 3 145 3 163 l1 33 108 -3 107
-3 1 -905 c0 -937 0 -927 39 -966 29 -29 93 -33 132 -8 52 33 50 -2 48 1044
-1 536 -3 980 -4 987 0 7 -13 25 -27 40 l-26 28 -264 3 -265 3 -35 -35 c-22
-22 -34 -44 -35 -63 0 -15 -1 -92 -2 -170 l-1 -143 -108 0 c-79 0 -108 3 -109
13 0 6 0 73 0 147 0 256 9 250 -339 250 l-249 0 -35 -34 c-21 -19 -36 -44 -37
-57 0 -13 -1 -90 -1 -171 l0 -148 -109 0 -109 0 -1 63 c0 34 -1 110 -1 169 0
101 -1 108 -28 140 l-28 33 -267 3 -267 3 -34 -36z"/>
<path d="M3510 7349 c-16 -10 -34 -28 -41 -41 -17 -31 -17 -2339 0 -2380 22
-58 102 -79 158 -43 44 29 50 58 49 242 -1 95 2 173 6 173 4 0 13 -10 19 -22
6 -12 16 -27 20 -32 5 -6 37 -47 71 -91 148 -192 344 -391 528 -535 36 -28 75
-58 86 -68 12 -9 28 -21 37 -27 8 -5 55 -36 103 -69 104 -70 143 -79 194 -44
24 16 37 35 43 61 15 62 -4 91 -107 159 -87 59 -213 152 -266 197 -88 75 -226
208 -290 280 -41 46 -80 88 -86 95 -68 74 -287 393 -278 407 2 3 137 6 300 6
220 1 302 4 320 14 76 40 74 153 -4 192 -19 10 -64 14 -155 13 -71 -1 -131 3
-134 7 -7 12 -6 381 1 404 14 43 82 60 121 29 26 -21 27 -27 29 -113 3 -101
16 -132 64 -156 54 -27 122 -2 146 54 7 17 11 68 10 128 -2 115 -25 180 -85
242 -165 169 -462 78 -505 -155 -3 -17 -6 -123 -7 -236 l-2 -205 -90 0 -90 1
0 656 0 655 87 1 86 1 4 -114 c3 -110 4 -116 31 -142 l27 -28 233 -3 c314 -5
320 -1 319 187 l0 97 86 0 87 -1 1 -715 c0 -393 4 -726 8 -740 21 -64 211
-331 315 -444 116 -126 326 -316 350 -316 5 0 11 -3 13 -7 12 -28 250 -174
408 -250 187 -90 290 -127 334 -119 37 7 85 46 87 71 9 99 -3 112 -156 170
-187 72 -481 242 -625 362 -66 56 -270 260 -316 318 -45 57 -125 168 -168 235
l-29 44 0 751 c1 421 -3 765 -8 785 -5 19 -22 44 -37 55 -25 19 -44 20 -254
21 -308 1 -311 0 -313 -174 -1 -61 -6 -107 -12 -110 -9 -6 -105 -7 -155 -3 -5
1 -8 46 -8 101 0 182 -3 185 -303 185 -200 1 -232 -1 -257 -16z"/>
<path d="M7290 6800 c0 -3 -16 -5 -36 -6 -24 0 -43 -9 -62 -27 l-27 -27 -1
-779 c-2 -586 -5 -789 -14 -818 -20 -62 -97 -211 -152 -292 -118 -177 -259
-314 -453 -439 -55 -36 -105 -73 -112 -81 -37 -50 -14 -133 43 -157 48 -20 75
-17 125 14 25 15 53 32 62 37 268 162 505 432 648 738 20 43 39 80 42 83 5 5
947 7 953 2 4 -5 -38 -140 -77 -245 -39 -105 -134 -297 -184 -371 -19 -30 -35
-56 -35 -58 0 -6 -97 -130 -135 -173 -71 -81 -215 -214 -253 -235 -9 -5 -19
-12 -22 -16 -22 -27 -246 -154 -345 -195 -164 -68 -385 -129 -550 -151 -27 -3
-59 -8 -70 -10 -99 -19 -529 -26 -680 -11 -44 5 -96 10 -115 12 -19 2 -78 11
-130 20 -52 9 -107 18 -122 21 -15 2 -37 8 -50 12 -13 5 -30 8 -38 7 -8 -1
-22 2 -31 6 -9 5 -29 11 -45 14 -16 3 -33 7 -39 9 -5 1 -30 8 -55 15 -69 19
-282 92 -312 108 -15 7 -30 13 -33 13 -3 0 -22 7 -43 16 -20 10 -40 18 -43 18
-19 3 -309 152 -309 159 0 5 4 5 10 2 10 -6 28 -10 85 -20 17 -3 66 -12 110
-21 45 -8 94 -16 110 -18 17 -2 48 -7 70 -10 22 -3 58 -8 81 -11 112 -15 443
-23 650 -15 27 1 84 56 85 84 3 50 -4 73 -31 100 l-28 29 -274 2 c-150 2 -284
5 -298 8 -14 3 -52 8 -85 12 -33 3 -76 9 -95 12 -57 9 -82 12 -135 19 -27 3
-54 8 -59 12 -5 3 -19 6 -31 7 -33 4 -137 25 -170 35 -16 5 -41 11 -55 14
-172 33 -738 223 -855 287 -194 106 -267 144 -480 249 -263 129 -318 155 -510
240 -129 56 -161 70 -180 76 -5 2 -62 22 -125 43 -63 22 -126 42 -140 45 -14
2 -54 11 -90 20 -95 22 -145 30 -270 45 -41 5 -430 10 -864 10 -435 1 -791 3
-793 5 -2 2 -5 225 -6 495 l-2 491 -25 25 c-17 16 -41 27 -72 31 -45 6 -49 5
-83 -29 l-36 -36 4 -1293 c2 -711 7 -1306 10 -1323 4 -16 9 -55 12 -85 3 -30
8 -66 10 -80 3 -14 7 -36 10 -50 46 -243 118 -480 205 -675 72 -162 229 -444
252 -453 4 -2 8 -8 8 -14 0 -11 120 -175 190 -259 59 -71 291 -303 359 -359
29 -25 58 -50 65 -55 19 -18 186 -139 220 -160 290 -180 474 -268 729 -350 97
-32 322 -89 397 -101 14 -2 39 -6 55 -9 17 -2 50 -7 75 -10 25 -3 61 -8 80
-12 41 -8 4871 -16 4915 -8 36 6 80 65 77 104 -4 46 -23 79 -57 95 -29 14
-118 16 -727 17 l-693 0 105 38 c107 39 199 74 235 91 599 271 999 569 1430
1065 128 148 364 501 434 650 32 68 81 187 85 205 2 8 6 22 9 30 6 16 43 168
54 223 3 17 8 754 10 1636 4 1699 5 1646 -42 1670 -32 17 -105 30 -105 19 0
-5 -5 -6 -10 -3 -6 4 -31 6 -55 5 -25 0 -53 -1 -62 -1 -110 2 -233 1 -253 -3
-14 -3 -37 -19 -52 -36 -29 -32 -30 -36 -30 -202 l0 -48 -87 0 -88 0 1 96 c2
187 -21 203 -282 191 -28 -1 -52 0 -52 3 0 3 -34 5 -75 5 -41 0 -75 -2 -75 -5z
m265 -331 l0 -109 33 -32 32 -33 229 -1 c254 -2 278 3 304 59 10 22 14 64 13
130 -1 111 -16 97 109 100 l60 1 3 -657 2 -657 -90 0 c-65 0 -90 3 -91 13 0 6
-1 111 -2 232 -3 205 -4 223 -25 265 -40 81 -116 145 -197 165 -27 7 -109 8
-145 2 -38 -7 -112 -52 -145 -89 -74 -81 -79 -105 -80 -358 l-2 -225 -91 -3
-92 -3 1 655 0 655 62 3 c119 6 112 13 112 -113z m360 -763 c23 -23 24 -27 25
-230 l1 -206 -79 0 -79 0 2 203 c1 111 3 205 4 209 0 4 11 16 23 28 29 27 73
26 103 -4z m-6165 -660 c152 -7 178 -10 340 -42 48 -10 145 -35 170 -45 14 -5
34 -11 45 -13 45 -10 224 -83 383 -157 45 -22 85 -39 88 -39 12 0 578 -283
724 -362 231 -126 269 -147 395 -221 16 -9 41 -23 55 -29 14 -7 27 -15 30 -19
3 -3 34 -22 70 -43 78 -44 96 -55 135 -81 16 -11 32 -20 35 -20 3 0 16 -8 30
-17 128 -82 428 -251 450 -253 3 0 39 -17 81 -37 80 -38 339 -138 358 -138 6
0 19 -4 29 -9 9 -5 44 -16 77 -25 33 -10 75 -22 93 -27 18 -6 45 -12 60 -15
15 -3 35 -7 44 -10 10 -3 30 -7 45 -10 16 -3 35 -7 43 -9 8 -2 31 -7 50 -10
19 -3 42 -8 50 -10 32 -9 196 -31 310 -42 150 -14 616 -6 710 12 12 2 48 7 79
11 31 3 59 8 62 10 4 2 24 6 45 10 22 3 56 10 77 15 21 6 50 12 65 14 66 8
347 111 466 170 206 102 361 212 520 371 131 130 272 324 352 484 l23 45 1
-260 c2 -439 1 -629 -5 -665 -3 -19 -7 -55 -10 -80 -4 -46 -30 -163 -42 -190
-3 -8 -7 -19 -8 -25 -35 -143 -240 -483 -445 -740 -168 -212 -462 -491 -685
-653 -225 -163 -497 -312 -765 -420 -136 -54 -322 -118 -373 -127 -13 -3 -41
-12 -61 -20 -20 -8 -36 -13 -36 -11 0 3 -18 -1 -39 -9 -22 -7 -42 -11 -44 -8
-3 3 -12 1 -19 -3 -7 -5 -17 -9 -23 -10 -5 -1 -21 -4 -35 -7 -138 -28 -300
-56 -355 -62 -22 -3 -62 -8 -90 -11 -58 -8 -86 -10 -215 -21 -124 -10 -2281
-10 -2385 0 -406 40 -862 201 -1209 427 -107 70 -214 147 -248 179 -9 9 -31
27 -50 41 -46 34 -297 286 -333 335 -16 22 -32 42 -35 45 -4 3 -19 23 -35 45
-17 22 -33 42 -36 45 -11 9 -156 234 -188 293 -75 136 -113 220 -211 472 -6
17 -24 76 -36 120 -27 99 -41 159 -54 230 -5 28 -12 64 -15 80 -3 17 -8 49
-10 71 -2 23 -7 55 -11 70 -4 16 -9 340 -11 721 l-5 692 59 3 c93 5 1347 0
1473 -6z"/>
<path d="M790 4272 c-112 -11 -143 -150 -45 -205 14 -8 165 -12 505 -13 267
-1 488 -2 491 -3 3 0 5 -51 4 -111 -1 -122 9 -159 50 -186 52 -34 118 -20 152
33 14 21 18 51 19 137 1 61 2 116 3 121 1 7 62 10 169 10 92 -1 181 2 197 7
91 24 101 163 15 198 -25 10 -190 13 -778 14 -411 1 -763 0 -782 -2z"/>
<path d="M1127 3522 c-90 -37 -93 -156 -5 -195 28 -13 159 -15 883 -14 792 2
853 3 878 19 72 48 64 156 -15 189 -45 18 -1696 20 -1741 1z"/>
<path d="M3415 3530 c-76 -13 -120 -88 -86 -149 34 -62 52 -69 196 -66 72 1
140 6 152 10 12 4 31 26 42 49 26 53 15 105 -30 137 -26 18 -45 21 -137 22
-59 1 -120 0 -137 -3z"/>
<path d="M3554 3031 c-19 -12 -36 -33 -42 -53 -7 -20 -10 -125 -9 -268 2 -225
3 -236 24 -266 40 -56 126 -55 169 2 25 32 25 37 25 203 1 93 -2 174 -5 180
-4 5 -3 12 2 15 10 6 4 110 -9 143 -10 28 -65 63 -99 63 -14 0 -39 -9 -56 -19z"/>
<path d="M2045 2883 c-37 -7 -67 -27 -81 -55 -10 -20 -14 -68 -14 -183 l0
-155 -170 0 c-186 0 -212 -6 -244 -55 -19 -29 -16 -96 6 -122 35 -42 36 -42
712 -43 683 0 678 -1 716 45 7 9 15 35 17 58 4 35 -1 48 -25 77 l-30 35 -381
3 -381 3 -1 87 c0 48 -1 118 -1 155 0 52 -5 75 -22 99 -23 34 -69 57 -101 51z"/>
<path d="M4785 2755 c-40 -37 -47 -87 -18 -136 24 -40 55 -50 233 -79 118 -18
109 -11 103 -93 -10 -129 -10 -142 0 -162 32 -66 120 -85 174 -37 27 24 34 46
40 130 8 114 4 107 59 106 27 -1 81 -5 119 -8 92 -7 284 -18 363 -20 104 -3
155 35 154 115 -1 32 -7 47 -31 70 -17 16 -36 29 -43 30 -7 0 -44 2 -83 4
-118 5 -298 15 -345 20 -50 5 -167 17 -190 20 -77 9 -179 24 -210 30 -14 3
-41 7 -60 9 -19 3 -60 10 -90 16 -112 23 -137 21 -175 -15z"/>
<path d="M6530 2733 c-75 -20 -109 -59 -105 -118 4 -63 40 -98 102 -101 58 -2
147 26 174 54 45 49 29 136 -31 167 -35 18 -66 17 -140 -2z"/>
<path d="M4231 1934 c-68 -29 -83 -115 -31 -174 l30 -34 223 -3 c122 -2 227
-4 232 -4 6 0 42 0 80 1 39 1 75 1 80 0 6 -2 12 -2 15 -1 3 1 125 3 272 5 265
5 291 8 325 42 41 41 34 130 -14 161 -23 15 -78 17 -606 17 -405 1 -588 -2
-606 -10z"/>
<path d="M1147 6564 c-2 -2 -12 -5 -23 -7 -29 -4 -125 -54 -154 -80 -46 -40
-78 -91 -100 -157 -19 -57 -22 -86 -22 -275 -1 -115 2 -223 6 -240 4 -18 20
-39 40 -53 33 -23 35 -23 325 -20 l291 3 27 28 28 28 0 252 c0 251 0 252 -26
308 -28 59 -104 144 -154 170 -52 28 -108 42 -172 44 -35 1 -64 0 -66 -1z
m142 -242 c51 -37 61 -74 61 -229 0 -141 0 -143 -22 -144 -81 -4 -250 0 -255
5 -8 7 -8 250 0 287 19 92 140 137 216 81z"/>
<path d="M5249 5810 c-57 -48 -54 -129 8 -174 24 -18 56 -19 758 -19 689 0
734 1 763 18 61 36 71 115 21 168 l-31 32 -744 0 -745 1 -30 -26z"/>
<path d="M6073 4205 c-116 -50 -68 -230 55 -209 95 16 141 87 105 161 -27 57
-94 77 -160 48z"/>
<path d="M8138 1157 c-65 -26 -75 -130 -16 -179 30 -26 38 -28 125 -28 50 0
103 5 116 11 26 12 59 61 62 93 3 35 -35 94 -68 106 -38 13 -184 11 -219 -3z"/>
</g>
</svg>
